<?xml version="1.0" encoding="UTF-8" standalone="no"?>
<svg
   viewBox="0 0 1000 834.646"
   fill="#C6CFDD"
   version="1.1"
   id="svg60"
   sodipodi:docname="back-end.svg"
   inkscape:version="1.2.2 (732a01da63, 2022-12-09)"
   xmlns:inkscape="http://www.inkscape.org/namespaces/inkscape"
   xmlns:sodipodi="http://sodipodi.sourceforge.net/DTD/sodipodi-0.dtd"
   xmlns="http://www.w3.org/2000/svg"
   xmlns:svg="http://www.w3.org/2000/svg">
  <defs
     id="defs64" />
  <sodipodi:namedview
     id="namedview62"
     pagecolor="#505050"
     bordercolor="#eeeeee"
     borderopacity="1"
     inkscape:showpageshadow="0"
     inkscape:pageopacity="0"
     inkscape:pagecheckerboard="0"
     inkscape:deskcolor="#505050"
     showgrid="false"
     inkscape:zoom="0.84888803"
     inkscape:cx="256.21754"
     inkscape:cy="417.01613"
     inkscape:window-width="2560"
     inkscape:window-height="1377"
     inkscape:window-x="1912"
     inkscape:window-y="-8"
     inkscape:window-maximized="1"
     inkscape:current-layer="svg60" />
  <g
     transform="matrix(1, 0, 0, 1, -4.188649, -2.68012)"
     id="g58">
    <g
       transform="translate(0.000000,512.000000) scale(0.100000,-0.100000)"
       id="g56">
      <path
         d="M 399.3 5006.9 C 299.7 4976.3 211.6 4907.3 158 4819.2 L 106.3 4729.2 L 100.6 977 C 98.5 -1628 102.4 -2796.3 115.8 -2850 C 140.7 -2941.9 246 -3060.7 339.9 -3104.7 C 403.1 -3135.3 562.1 -3137.3 2498.5 -3139.2 C 4427.3 -3139.2 4588.2 -3137.3 4586.3 -3106.6 C 4586.3 -3089.4 4584.4 -3045.3 4582.5 -3008.9 L 4578.7 -2941.9 L 3151.7 -2941.9 L 1724.7 -2941.9 L 1724.7 228 L 1724.7 3398 L 5714.4 3394.2 L 9702.2 3388.5 L 9702.2 314.2 C 9702.2 -1377.1 9694.5 -2784.9 9686.9 -2813.6 C 9660.1 -2913.2 9577.7 -2941.9 9323 -2941.9 L 4573.999 -2941.877 L 4580.567 -3011.837 L 2499.887 -3136.081 L 9357.4 -3135.3 C 9526 -3131.5 9625.6 -3120 9667.7 -3100.8 C 9755.8 -3060.6 9859.2 -2938 9884.1 -2849.9 C 9897.5 -2796.3 9901.3 -1627.9 9899.4 977 L 9893.7 4729.2 L 9840.1 4819.2 C 9805.6 4878.6 9755.8 4928.4 9696.4 4962.9 L 9606.4 5016.5 L 5028.6 5020.3 C 2511.9 5022.2 428 5016.5 399.3 5006.9 Z M 9593.1 4800 C 9698.4 4738.7 9702.3 4717.6 9702.3 4135.4 L 9702.3 3599.1 L 5000 3599.1 L 297.7 3599.1 L 297.7 4139.2 C 297.7 4656.3 299.6 4681.2 337.9 4733 C 359 4761.7 406.9 4796.2 443.2 4807.7 C 542.9 4842.2 9533.7 4834.5 9593.1 4800 Z M 1533.2 228 L 1533.2 -2941.9 L 993 -2941.9 C 489.3 -2941.9 447.1 -2940 389.7 -2903.6 C 347.6 -2878.7 322.7 -2844.2 309.3 -2794.4 C 292.1 -2723.5 282.5 3352 301.6 3384.6 C 305.4 3392.3 585.1 3398 922.2 3398 L 1533.2 3398 L 1533.2 228 Z"
         id="path34" />
      <path
         d="M6520.8,4593.2c-178.1-44-316-252.8-287.3-434.8c30.6-193.5,157.1-319.9,350.5-350.5c107.2-17.2,226,23,316,103.4c97.7,88.1,130.2,162.8,130.2,300.7C7030.3,4484,6792.8,4662.1,6520.8,4593.2z M6773.6,4348c134.1-134.1,49.8-335.2-139.8-337.1c-197.3,0-281.6,262.4-114.9,363.9C6614.7,4434.2,6697,4424.6,6773.6,4348z"
         id="path36" />
      <path
         d="M7691.1,4577.9c-289.2-128.3-312.2-559.3-38.3-714.4c162.8-91.9,339-72.8,473.1,47.9c97.7,88.1,130.2,162.8,130.2,300.7c0,160.9-74.7,283.5-214.5,356.3C7957.4,4610.4,7777.3,4616.2,7691.1,4577.9z M7999.5,4348c72.8-72.8,84.3-147.5,36.4-241.3c-36.4-70.9-82.4-95.8-180.1-95.8c-195.4,0-275.8,264.3-111.1,363.9C7840.5,4434.2,7922.9,4424.6,7999.5,4348z"
         id="path38" />
      <path
         d="M8917,4577.9c-289.2-128.3-312.2-559.3-38.3-714.4c162.8-91.9,339-72.8,473.1,47.9c97.7,88.1,130.2,162.8,130.2,300.7c0,160.9-74.7,283.5-214.5,356.3C9183.2,4610.4,9003.1,4616.2,8917,4577.9z M9225.3,4348c72.8-72.8,84.3-147.5,36.4-241.3c-36.4-70.9-82.4-95.8-182-95.8c-63.2,0-91.9,11.5-136,55.5c-44.1,44.1-55.5,72.8-55.5,136c0,97.7,23,143.7,91.9,180C9070.2,4432.3,9152.5,4420.8,9225.3,4348z"
         id="path40" />
      <path
         d="M709.6,2480.5v-91.9l88.1-11.5c49.8-5.8,139.8-3.8,201.1,0l113,11.5v91.9v93.9H910.7H709.6V2480.5z"
         id="path42" />
      <path
         d="M744,1547.7c-26.8-7.7-34.5-30.6-34.5-105.3v-93.9h201.1h201.1v95.8v95.8h-70.9c-40.2,0-114.9,3.8-168.5,7.7C820.6,1553.5,761.3,1551.6,744,1547.7z"
         id="path44" />
      <path
         d="M709.6,429.1v-95.8h201.1h201.1v95.8v95.8H910.7H709.6V429.1z"
         id="path46" />
      <path
         d="M709.6-584.1V-676l88.1-11.5c49.8-5.8,139.8-3.8,201.1,0l113,11.5v91.9v93.9H910.7H709.6V-584.1z"
         id="path48" />
      <path
         d="M744-1516.9c-26.8-7.6-34.5-30.6-34.5-105.3v-93.8h201.1h201.1v95.8v95.8h-70.9c-40.2,0-114.9,3.8-168.5,7.6C820.6-1511.1,761.3-1513,744-1516.9z"
         id="path50" />
      <path
         d="M 5178.745 2108.243 L 5178.745 1882.243 L 5059.945 1838.243 C 4992.945 1815.243 4897.145 1773.143 4845.445 1748.243 L 4751.645 1700.343 L 4586.945 1865.043 L 4422.245 2029.743 L 4134.945 1742.443 L 3847.545 1455.143 L 4014.145 1288.543 L 4180.745 1119.943 L 4125.245 1014.643 C 4096.545 955.243 4056.245 863.343 4039.045 807.743 L 4006.445 708.143 L 3780.445 708.143 L 3556.345 708.143 L 3546.745 608.543 C 3533.345 466.843 3542.945 -75.257 3558.245 -90.557 C 3565.945 -98.157 3667.445 -103.957 3786.145 -105.857 L 3998.745 -105.857 L 4048.545 -239.957 C 4077.245 -312.757 4117.445 -408.557 4140.445 -450.657 L 4180.645 -527.257 L 4017.845 -691.957 L 3855.245 -854.757 L 4111.945 -1113.357 C 4253.645 -1255.057 4383.945 -1381.557 4401.145 -1396.857 C 4429.845 -1421.757 4450.945 -1408.357 4594.645 -1264.657 L 4755.545 -1103.757 L 4904.945 -1172.757 C 4987.345 -1211.057 5081.145 -1249.357 5111.845 -1258.957 L 5169.345 -1278.157 L 5175.045 -1509.857 L 5180.745 -1743.557 L 5581.045 -1743.557 L 5981.345 -1743.557 L 5987.045 -1509.857 L 5992.745 -1278.157 L 6050.245 -1258.957 C 6082.845 -1249.357 6174.745 -1211.057 6257.145 -1172.757 L 6406.545 -1103.757 L 6569.345 -1266.557 L 6730.245 -1427.457 L 7017.545 -1140.157 L 7304.845 -852.857 L 7143.945 -690.057 L 6981.145 -527.257 L 7027.145 -441.057 C 7052.045 -393.157 7092.245 -301.257 7113.345 -234.157 C 7163.145 -92.457 7178.445 -84.757 7412.145 -101.957 C 7529.045 -109.657 7578.745 -107.657 7596.045 -88.557 C 7620.945 -65.557 7620.945 -36.857 7613.245 570.343 L 7611.345 708.243 L 7383.445 708.243 L 7155.545 708.243 L 7122.945 807.843 C 7105.745 863.343 7065.445 955.343 7036.745 1014.743 L 6981.145 1120.043 L 7147.745 1288.643 L 7314.345 1455.243 L 7027.045 1742.543 L 6739.745 2029.843 L 6575.045 1865.143 L 6410.345 1700.443 L 6316.545 1748.343 C 6264.845 1773.243 6169.045 1815.343 6103.945 1838.343 L 5983.245 1882.343 L 5983.245 2108.343 L 5983.245 2336.243 L 5581.045 2336.243 L 5178.845 2336.243 L 5178.845 2108.243 L 5178.745 2108.243 Z M 5795.545 1932.043 L 5801.245 1719.443 L 5964.045 1671.543 C 6105.745 1631.343 6257.045 1562.343 6402.645 1472.343 C 6439.045 1447.443 6452.445 1457.043 6592.245 1594.943 L 6739.745 1742.443 L 6883.445 1598.743 L 7027.145 1455.043 L 6879.645 1305.643 L 6734.045 1158.143 L 6816.445 1006.843 C 6862.445 922.543 6917.945 794.243 6940.945 719.543 C 7009.845 493.543 6994.545 508.843 7128.645 514.643 C 7191.845 516.543 7283.845 512.743 7333.545 506.943 L 7419.745 493.543 L 7419.745 294.343 L 7419.745 95.143 L 7212.845 95.143 L 7005.945 95.143 L 6952.345 -86.857 C 6921.745 -188.357 6858.545 -335.857 6812.545 -416.357 L 6730.145 -563.857 L 6877.645 -713.257 L 7027.045 -862.657 L 6883.345 -1006.357 L 6739.645 -1150.057 L 6592.145 -1002.557 L 6444.645 -855.057 L 6256.945 -952.757 C 6153.545 -1004.457 6006.045 -1063.857 5931.345 -1084.857 L 5791.545 -1119.357 L 5791.545 -1324.257 L 5791.545 -1529.257 L 5632.545 -1542.657 C 5364.345 -1565.657 5379.745 -1577.157 5373.945 -1331.957 L 5368.245 -1119.357 L 5230.345 -1084.857 C 5153.745 -1063.757 5008.145 -1004.457 4904.745 -952.757 L 4717.045 -855.057 L 4569.545 -1002.557 L 4422.245 -1149.757 L 4278.545 -1006.057 L 4134.845 -862.357 L 4286.145 -711.057 L 4435.545 -561.657 L 4381.945 -477.357 C 4305.345 -356.657 4232.545 -182.357 4192.345 -32.957 L 4157.845 95.343 L 3950.945 95.343 L 3742.245 95.343 L 3742.245 302.243 L 3742.245 511.043 L 3945.245 512.943 C 4056.345 512.943 4152.145 516.743 4155.945 522.543 C 4159.745 526.343 4182.745 593.443 4203.845 671.943 C 4224.945 750.443 4284.245 892.243 4336.045 987.943 L 4427.945 1162.243 L 4282.345 1307.843 L 4134.845 1455.143 L 4278.545 1598.843 L 4422.245 1742.543 L 4569.745 1595.043 C 4709.545 1457.143 4722.945 1447.543 4759.345 1472.443 C 4904.945 1562.443 5056.245 1631.443 5197.945 1671.643 L 5360.745 1719.543 L 5366.445 1932.143 L 5372.145 2144.743 L 5580.945 2144.743 L 5789.745 2144.743 L 5795.545 1932.043 Z"
         id="path52" />
      <path
         d="M 5341.545 1077.843 C 5115.545 995.443 4929.745 834.543 4837.845 635.443 C 4791.845 537.743 4786.145 503.243 4786.145 305.943 C 4786.145 87.543 4788.045 81.843 4858.945 -61.857 C 5157.745 -669.057 6023.445 -659.457 6314.645 -44.657 C 6372.145 77.943 6375.945 97.043 6375.945 305.843 C 6375.945 518.443 6374.045 531.843 6310.845 654.443 C 6230.445 817.243 6082.945 958.943 5912.445 1039.443 C 5801.345 1089.243 5755.345 1100.743 5609.845 1104.543 C 5481.445 1110.343 5412.445 1102.743 5341.545 1077.843 Z M 5835.745 855.643 C 5893.245 828.843 5975.545 771.343 6017.745 729.243 C 6314.645 422.743 6218.845 -82.857 5830.045 -257.157 C 5724.645 -305.057 5694.045 -310.757 5556.145 -303.157 C 5368.445 -295.557 5253.545 -245.657 5140.545 -123.157 C 5031.345 -4.357 4983.445 104.743 4972.045 252.243 C 4939.345 721.543 5408.645 1050.943 5835.745 855.643 Z"
         id="path54" />
    </g>
  </g>
</svg>
