<?xml version="1.0" encoding="utf-8"?>
<!-- Svg Vector Icons : http://www.onlinewebfonts.com/icon -->
<!DOCTYPE svg PUBLIC "-//W3C//DTD SVG 1.1//EN" "http://www.w3.org/Graphics/SVG/1.1/DTD/svg11.dtd">
<svg version="1.1" xmlns="http://www.w3.org/2000/svg" xmlns:xlink="http://www.w3.org/1999/xlink" x="0px" y="0px" viewBox="0 0 1000 1000" enable-background="new 0 0 1000 1000" xml:space="preserve">
<metadata> Svg Vector Icons : http://www.onlinewebfonts.com/icon </metadata>
<g><g transform="translate(0.000000,512.000000) scale(0.100000,-0.100000)"><path d="M399.3,5006.9c-99.6-30.6-187.7-99.6-241.3-187.7l-51.7-90l-5.7-3752.2C98.5-1628,102.4-2796.3,115.8-2850c24.9-91.9,130.2-210.7,224.1-254.7c63.2-30.6,222.2-32.6,2158.6-34.5c1928.8,0,2089.7,1.9,2087.8,32.6c0,17.2-1.9,61.3-3.8,97.7l-3.8,67h-1427h-1427V228V3398l3989.7-3.8l3987.8-5.7V314.2c0-1691.3-7.7-3099.1-15.3-3127.8c-26.8-99.6-109.2-128.3-363.9-128.3h-226l5.7-99.6l5.7-101.5l249,7.7c168.6,3.8,268.2,15.3,310.3,34.5c88.1,40.2,191.5,162.8,216.4,250.9c13.4,53.6,17.2,1222,15.3,3826.9l-5.7,3752.2l-53.6,90c-34.5,59.4-84.3,109.2-143.7,143.7l-90,53.6l-4577.8,3.8C2511.9,5022.2,428,5016.5,399.3,5006.9z M9593.1,4800c105.3-61.3,109.2-82.4,109.2-664.6v-536.3H5000H297.7v540.1c0,517.1,1.9,542,40.2,593.8c21.1,28.7,69,63.2,105.3,74.7C542.9,4842.2,9533.7,4834.5,9593.1,4800z M1533.2,228v-3169.9H993c-503.7,0-545.9,1.9-603.3,38.3c-42.1,24.9-67,59.4-80.4,109.2c-17.2,70.9-26.8,6146.4-7.7,6179c3.8,7.7,283.5,13.4,620.6,13.4h611V228z"/><path d="M6520.8,4593.2c-178.1-44-316-252.8-287.3-434.8c30.6-193.5,157.1-319.9,350.5-350.5c107.2-17.2,226,23,316,103.4c97.7,88.1,130.2,162.8,130.2,300.7C7030.3,4484,6792.8,4662.1,6520.8,4593.2z M6773.6,4348c134.1-134.1,49.8-335.2-139.8-337.1c-197.3,0-281.6,262.4-114.9,363.9C6614.7,4434.2,6697,4424.6,6773.6,4348z"/><path d="M7691.1,4577.9c-289.2-128.3-312.2-559.3-38.3-714.4c162.8-91.9,339-72.8,473.1,47.9c97.7,88.1,130.2,162.8,130.2,300.7c0,160.9-74.7,283.5-214.5,356.3C7957.4,4610.4,7777.3,4616.2,7691.1,4577.9z M7999.5,4348c72.8-72.8,84.3-147.5,36.4-241.3c-36.4-70.9-82.4-95.8-180.1-95.8c-195.4,0-275.8,264.3-111.1,363.9C7840.5,4434.2,7922.9,4424.6,7999.5,4348z"/><path d="M8917,4577.9c-289.2-128.3-312.2-559.3-38.3-714.4c162.8-91.9,339-72.8,473.1,47.9c97.7,88.1,130.2,162.8,130.2,300.7c0,160.9-74.7,283.5-214.5,356.3C9183.2,4610.4,9003.1,4616.2,8917,4577.9z M9225.3,4348c72.8-72.8,84.3-147.5,36.4-241.3c-36.4-70.9-82.4-95.8-182-95.8c-63.2,0-91.9,11.5-136,55.5c-44.1,44.1-55.5,72.8-55.5,136c0,97.7,23,143.7,91.9,180C9070.2,4432.3,9152.5,4420.8,9225.3,4348z"/><path d="M709.6,2480.5v-91.9l88.1-11.5c49.8-5.8,139.8-3.8,201.1,0l113,11.5v91.9v93.9H910.7H709.6V2480.5z"/><path d="M744,1547.7c-26.8-7.7-34.5-30.6-34.5-105.3v-93.9h201.1h201.1v95.8v95.8h-70.9c-40.2,0-114.9,3.8-168.5,7.7C820.6,1553.5,761.3,1551.6,744,1547.7z"/><path d="M709.6,429.1v-95.8h201.1h201.1v95.8v95.8H910.7H709.6V429.1z"/><path d="M709.6-584.1V-676l88.1-11.5c49.8-5.8,139.8-3.8,201.1,0l113,11.5v91.9v93.9H910.7H709.6V-584.1z"/><path d="M744-1516.9c-26.8-7.6-34.5-30.6-34.5-105.3v-93.8h201.1h201.1v95.8v95.8h-70.9c-40.2,0-114.9,3.8-168.5,7.6C820.6-1511.1,761.3-1513,744-1516.9z"/><path d="M2649.8,1917.4l-503.7-252.8v-114.9v-114.9l507.6-254.7l507.6-252.8v114.9V1157l-396.5,199.2l-398.4,199.2l398.4,197.3l396.5,199.2V2061c0,61.3-1.9,111.1-3.8,109.2C3153.6,2170.2,2925.6,2057.2,2649.8,1917.4z"/><path d="M5000,2061v-109.2l396.5-199.2l398.4-197.3l-398.4-199.2L5000,1157v-114.9V927.1l507.6,252.8l507.6,254.7v114.9v114.9l-507.6,254.7L5000,2172.1V2061z"/><path d="M3571.1,1565c5.8-47.9,15.3-91.9,19.2-97.7c7.7-5.8,856.2-11.5,1109-5.8l90,1.9v95.8v95.8h-614.8h-616.7L3571.1,1565z"/><path d="M2146.1,429.1v-95.8h603.3h603.3v95.8v95.8h-603.3h-603.3V429.1z"/><path d="M3774.2,429.1v-95.8h1626.1h1624.3l13.4,72.8c5.7,38.3,11.5,82.4,11.5,95.8c0,17.2-340.9,23-1637.6,23H3774.2V429.1z"/><path d="M7451.7,429.1v-95.8h612.9h612.9v95.8v95.8h-612.9h-612.9V429.1z"/><path d="M2266.8-294.9l-120.7-5.8v-93.8v-95.8h1227.7h1227.8l-13.4,91.9c-7.7,49.8-17.2,93.9-21.1,97.7C4559.5-291,2444.9-287.2,2266.8-294.9z"/><path d="M5032.6-294.9c-24.9-5.8-32.6-28.7-32.6-101.5v-93.8h1015.1h1015.2l3.8,76.6c0,42.1,1.9,86.2,3.8,99.6c1.9,15.3-250.9,21.1-986.4,23C5509.5-289.1,5049.8-291,5032.6-294.9z"/><path d="M6436.5-928.9v-226l-118.8-44c-67-23-162.8-65.1-214.5-90l-93.8-47.9l-164.7,164.7L5680-1007.4l-287.3-287.3L5105.3-1582l166.6-166.6l166.6-168.6l-55.5-105.3c-28.7-59.4-69-151.3-86.2-206.9l-32.6-99.6h-226h-224.1l-9.6-99.6c-13.4-141.7-3.8-683.8,11.5-699.1c7.7-7.6,109.2-13.4,227.9-15.3h212.6l49.8-134.1c28.7-72.8,68.9-168.6,91.9-210.7l40.2-76.6l-162.8-164.7L5113-3891.9l256.7-258.6c141.7-141.7,272-268.2,289.2-283.5c28.7-24.9,49.8-11.5,193.5,132.2l160.9,160.9l149.4-69c82.4-38.3,176.2-76.6,206.9-86.2l57.5-19.2l5.7-231.7l5.7-233.7h400.3h400.3l5.7,233.7l5.7,231.7l57.5,19.2c32.6,9.6,124.5,47.9,206.9,86.2l149.4,69l162.8-162.8l160.9-160.9l287.3,287.3l287.3,287.3l-160.9,162.8l-162.8,162.8l46,86.2c24.9,47.9,65.1,139.8,86.2,206.9c49.8,141.7,65.1,149.4,298.8,132.2c116.9-7.7,166.6-5.7,183.9,13.4c24.9,23,24.9,51.7,17.2,658.9l-1.9,137.9h-227.9h-227.9l-32.6,99.6c-17.2,55.5-57.5,147.5-86.2,206.9l-55.6,105.3l166.6,168.6l166.6,166.6l-287.3,287.3l-287.3,287.3l-164.7-164.7l-164.7-164.7l-93.8,47.9c-51.7,24.9-147.5,67-212.6,90l-120.7,44v226v227.9h-402.2h-402.2V-928.9z M7053.3-1105.1l5.7-212.6l162.8-47.9c141.7-40.2,293-109.2,438.6-199.2c36.4-24.9,49.8-15.3,189.6,122.6l147.5,147.5l143.7-143.7l143.7-143.7l-147.5-149.4l-145.6-147.5l82.4-151.3c46-84.3,101.5-212.6,124.5-287.3c68.9-226,53.6-210.7,187.7-204.9c63.2,1.9,155.2-1.9,204.9-7.7l86.2-13.4v-199.2v-199.2h-206.9h-206.9l-53.6-182c-30.6-101.5-93.8-249-139.8-329.5l-82.4-147.5l147.5-149.4l149.4-149.4l-143.7-143.7l-143.7-143.7l-147.5,147.5l-147.5,147.5l-187.7-97.7c-103.4-51.7-250.9-111.1-325.6-132.1l-139.8-34.5v-204.9v-205l-159-13.4c-268.2-23-252.8-34.5-258.6,210.7l-5.7,212.6l-137.9,34.5c-76.6,21.1-222.2,80.4-325.6,132.1l-187.7,97.7l-147.5-147.5L5680-4186.9l-143.7,143.7l-143.7,143.7l151.3,151.3l149.4,149.4l-53.6,84.3c-76.6,120.7-149.4,295-189.6,444.4l-34.5,128.3h-206.9H5000v206.9v208.8l203,1.9c111.1,0,206.9,3.8,210.7,9.6c3.8,3.8,26.8,70.9,47.9,149.4c21.1,78.5,80.4,220.3,132.2,316l91.9,174.3l-145.6,145.6L5392.6-1582l143.7,143.7l143.7,143.7l147.5-147.5c139.8-137.9,153.2-147.5,189.6-122.6c145.6,90,296.9,159,438.6,199.2l162.8,47.9l5.7,212.6l5.7,212.6h208.8h208.8L7053.3-1105.1z"/><path d="M6599.3-1959.3c-226-82.4-411.8-243.3-503.7-442.4c-46-97.7-51.7-132.2-51.7-329.5c0-218.4,1.9-224.1,72.8-367.8c298.8-607.2,1164.5-597.6,1455.7,17.2c57.5,122.6,61.3,141.7,61.3,350.5c0,212.6-1.9,226-65.1,348.6c-80.4,162.8-227.9,304.5-398.4,385c-111.1,49.8-157.1,61.3-302.6,65.1C6739.2-1926.8,6670.2-1934.4,6599.3-1959.3z M7093.5-2181.5c57.5-26.8,139.8-84.3,182-126.4c296.9-306.5,201.1-812.1-187.7-986.4c-105.4-47.9-136-53.6-273.9-46c-187.7,7.6-302.6,57.5-415.6,180c-109.2,118.8-157.1,227.9-168.5,375.4C6197.1-2315.6,6666.4-1986.2,7093.5-2181.5z"/></g></g>
</svg>