<?xml version="1.0" encoding="utf-8"?>
<svg viewBox="-354.28 -156.456 990.96 830.046" xmlns="http://www.w3.org/2000/svg" fill="#C6CFDD">
  <g transform="matrix(1, 0, 0, 1, -357.731049, -159.639542)">
    <g transform="translate(0.000000,512.000000) scale(0.100000,-0.100000)">
      <path d="M 399.3 5006.9 C 299.7 4976.3 211.6 4907.3 158 4819.2 L 106.3 4729.2 L 100.6 977 C 98.5 -1628 102.4 -2796.3 115.8 -2850 C 140.7 -2941.9 246 -3060.7 339.9 -3104.7 C 403.1 -3135.3 562.1 -3137.3 2498.5 -3139.2 C 4427.3 -3139.2 4584.4 -3045.3 4582.5 -3008.9 L 4578.7 -2941.9 L 3151.7 -2941.9 L 1724.7 -2941.9 L 1724.7 228 L 1724.7 3398 L 5714.4 3394.2 L 9702.2 3388.5 L 9702.2 314.2 C 9702.2 -1377.1 9694.5 -2784.9 9686.9 -2813.6 C 9660.1 -2913.2 9577.7 -2941.9 9323 -2941.9 L 4578.89 -2942.017 L 4581.08 -3007.786 L 2497.965 -3137.54 L 9357.4 -3135.3 C 9526 -3131.5 9625.6 -3120 9667.7 -3100.8 C 9755.8 -3060.6 9859.2 -2938 9884.1 -2849.9 C 9897.5 -2796.3 9901.3 -1627.9 9899.4 977 L 9893.7 4729.2 L 9840.1 4819.2 C 9805.6 4878.6 9755.8 4928.4 9696.4 4962.9 L 9606.4 5016.5 L 5028.6 5020.3 C 2511.9 5022.2 428 5016.5 399.3 5006.9 Z M 9593.1 4800 C 9698.4 4738.7 9702.3 4717.6 9702.3 4135.4 L 9702.3 3599.1 L 5000 3599.1 L 297.7 3599.1 L 297.7 4139.2 C 297.7 4656.3 299.6 4681.2 337.9 4733 C 359 4761.7 406.9 4796.2 443.2 4807.7 C 542.9 4842.2 9533.7 4834.5 9593.1 4800 Z M 1533.2 228 L 1533.2 -2941.9 L 993 -2941.9 C 489.3 -2941.9 447.1 -2940 389.7 -2903.6 C 347.6 -2878.7 322.7 -2844.2 309.3 -2794.4 C 292.1 -2723.5 282.5 3352 301.6 3384.6 C 305.4 3392.3 585.1 3398 922.2 3398 L 1533.2 3398 L 1533.2 228 Z"/>
      <path d="M6520.8,4593.2c-178.1-44-316-252.8-287.3-434.8c30.6-193.5,157.1-319.9,350.5-350.5c107.2-17.2,226,23,316,103.4c97.7,88.1,130.2,162.8,130.2,300.7C7030.3,4484,6792.8,4662.1,6520.8,4593.2z M6773.6,4348c134.1-134.1,49.8-335.2-139.8-337.1c-197.3,0-281.6,262.4-114.9,363.9C6614.7,4434.2,6697,4424.6,6773.6,4348z"/>
      <path d="M7691.1,4577.9c-289.2-128.3-312.2-559.3-38.3-714.4c162.8-91.9,339-72.8,473.1,47.9c97.7,88.1,130.2,162.8,130.2,300.7c0,160.9-74.7,283.5-214.5,356.3C7957.4,4610.4,7777.3,4616.2,7691.1,4577.9z M7999.5,4348c72.8-72.8,84.3-147.5,36.4-241.3c-36.4-70.9-82.4-95.8-180.1-95.8c-195.4,0-275.8,264.3-111.1,363.9C7840.5,4434.2,7922.9,4424.6,7999.5,4348z"/>
      <path d="M8917,4577.9c-289.2-128.3-312.2-559.3-38.3-714.4c162.8-91.9,339-72.8,473.1,47.9c97.7,88.1,130.2,162.8,130.2,300.7c0,160.9-74.7,283.5-214.5,356.3C9183.2,4610.4,9003.1,4616.2,8917,4577.9z M9225.3,4348c72.8-72.8,84.3-147.5,36.4-241.3c-36.4-70.9-82.4-95.8-182-95.8c-63.2,0-91.9,11.5-136,55.5c-44.1,44.1-55.5,72.8-55.5,136c0,97.7,23,143.7,91.9,180C9070.2,4432.3,9152.5,4420.8,9225.3,4348z"/>
      <path d="M709.6,2480.5v-91.9l88.1-11.5c49.8-5.8,139.8-3.8,201.1,0l113,11.5v91.9v93.9H910.7H709.6V2480.5z"/>
      <path d="M744,1547.7c-26.8-7.7-34.5-30.6-34.5-105.3v-93.9h201.1h201.1v95.8v95.8h-70.9c-40.2,0-114.9,3.8-168.5,7.7C820.6,1553.5,761.3,1551.6,744,1547.7z"/>
      <path d="M709.6,429.1v-95.8h201.1h201.1v95.8v95.8H910.7H709.6V429.1z"/>
      <path d="M709.6-584.1V-676l88.1-11.5c49.8-5.8,139.8-3.8,201.1,0l113,11.5v91.9v93.9H910.7H709.6V-584.1z"/>
      <path d="M744-1516.9c-26.8-7.6-34.5-30.6-34.5-105.3v-93.8h201.1h201.1v95.8v95.8h-70.9c-40.2,0-114.9,3.8-168.5,7.6C820.6-1511.1,761.3-1513,744-1516.9z"/>
      <path d="M2649.8,1917.4l-503.7-252.8v-114.9v-114.9l507.6-254.7l507.6-252.8v114.9V1157l-396.5,199.2l-398.4,199.2l398.4,197.3l396.5,199.2V2061c0,61.3-1.9,111.1-3.8,109.2C3153.6,2170.2,2925.6,2057.2,2649.8,1917.4z"/>
      <path d="M5000,2061v-109.2l396.5-199.2l398.4-197.3l-398.4-199.2L5000,1157v-114.9V927.1l507.6,252.8l507.6,254.7v114.9v114.9l-507.6,254.7L5000,2172.1V2061z"/>
      <path d="M3571.1,1565c5.8-47.9,15.3-91.9,19.2-97.7c7.7-5.8,856.2-11.5,1109-5.8l90,1.9v95.8v95.8h-614.8h-616.7L3571.1,1565z"/>
      <path d="M2146.1,429.1v-95.8h603.3h603.3v95.8v95.8h-603.3h-603.3V429.1z"/>
      <path d="M3774.2,429.1v-95.8h1626.1h1624.3l13.4,72.8c5.7,38.3,11.5,82.4,11.5,95.8c0,17.2-340.9,23-1637.6,23H3774.2V429.1z"/>
      <path d="M7451.7,429.1v-95.8h612.9h612.9v95.8v95.8h-612.9h-612.9V429.1z"/>
      <path d="M2266.8-294.9l-120.7-5.8v-93.8v-95.8h1227.7h1227.8l-13.4,91.9c-7.7,49.8-17.2,93.9-21.1,97.7C4559.5-291,2444.9-287.2,2266.8-294.9z"/>
      <path d="M5032.6-294.9c-24.9-5.8-32.6-28.7-32.6-101.5v-93.8h1015.1h1015.2l3.8,76.6c0,42.1,1.9,86.2,3.8,99.6c1.9,15.3-250.9,21.1-986.4,23C5509.5-289.1,5049.8-291,5032.6-294.9z"/>
    </g>
  </g>
  <path d="M 218.704 627.161 L 218.704 636.741 L 279.034 636.741 L 339.364 636.741 L 339.364 627.161 L 339.364 617.581 L 279.034 617.581 L 218.704 617.581 L 218.704 627.161 Z" transform="matrix(1, 0, 0, 1, -360.506653, -158.798325)"/>
  <path d="M 381.514 627.161 L 381.514 636.741 L 544.124 636.741 L 706.554 636.741 L 707.894 629.461 C 708.464 625.631 709.044 621.221 709.044 619.881 C 709.044 618.161 674.954 617.581 545.284 617.581 L 381.514 617.581 L 381.514 627.161 Z" transform="matrix(1, 0, 0, 1, -360.506653, -158.798325)"/>
  <path d="M 749.264 627.161 L 749.264 636.741 L 810.554 636.741 L 871.844 636.741 L 871.844 627.161 L 871.844 617.581 L 810.554 617.581 L 749.264 617.581 L 749.264 627.161 Z" transform="matrix(1, 0, 0, 1, -360.506653, -158.798325)"/>
</svg>