<?xml version="1.0" encoding="UTF-8" standalone="no"?>
<svg
   width="2500"
   height="2432"
   viewBox="0 0 256 249"
   preserveAspectRatio="xMinYMin meet"
   version="1.1"
   id="svg584"
   sodipodi:docname="github.svg"
   inkscape:version="1.2.2 (732a01da63, 2022-12-09)"
   xmlns:inkscape="http://www.inkscape.org/namespaces/inkscape"
   xmlns:sodipodi="http://sodipodi.sourceforge.net/DTD/sodipodi-0.dtd"
   xmlns="http://www.w3.org/2000/svg"
   xmlns:svg="http://www.w3.org/2000/svg">
  <defs
     id="defs588" />
  <sodipodi:namedview
     id="namedview586"
     pagecolor="#505050"
     bordercolor="#eeeeee"
     borderopacity="1"
     inkscape:showpageshadow="0"
     inkscape:pageopacity="0"
     inkscape:pagecheckerboard="0"
     inkscape:deskcolor="#505050"
     showgrid="false"
     inkscape:zoom="0.41200658"
     inkscape:cx="1249.98"
     inkscape:cy="1216"
     inkscape:window-width="2560"
     inkscape:window-height="1377"
     inkscape:window-x="1912"
     inkscape:window-y="-8"
     inkscape:window-maximized="1"
     inkscape:current-layer="svg584" />
  <g
     fill="#161614"
     id="g582">
    <path
       d="M127.505 0C57.095 0 0 57.085 0 127.505c0 56.336 36.534 104.13 87.196 120.99 6.372 1.18 8.712-2.766 8.712-6.134 0-3.04-.119-13.085-.173-23.739-35.473 7.713-42.958-15.044-42.958-15.044-5.8-14.738-14.157-18.656-14.157-18.656-11.568-7.914.872-7.752.872-7.752 12.804.9 19.546 13.14 19.546 13.14 11.372 19.493 29.828 13.857 37.104 10.6 1.144-8.242 4.449-13.866 8.095-17.05-28.32-3.225-58.092-14.158-58.092-63.014 0-13.92 4.981-25.295 13.138-34.224-1.324-3.212-5.688-16.18 1.235-33.743 0 0 10.707-3.427 35.073 13.07 10.17-2.826 21.078-4.242 31.914-4.29 10.836.048 21.752 1.464 31.942 4.29 24.337-16.497 35.029-13.07 35.029-13.07 6.94 17.563 2.574 30.531 1.25 33.743 8.175 8.929 13.122 20.303 13.122 34.224 0 48.972-29.828 59.756-58.22 62.912 4.573 3.957 8.648 11.717 8.648 23.612 0 17.06-.148 30.791-.148 34.991 0 3.393 2.295 7.369 8.759 6.117 50.634-16.879 87.122-64.656 87.122-120.973C255.009 57.085 197.922 0 127.505 0"
       id="path578" />
    <path
       d="M47.755 181.634c-.28.633-1.278.823-2.185.389-.925-.416-1.445-1.28-1.145-1.916.275-.652 1.273-.834 2.196-.396.927.415 1.455 1.287 1.134 1.923M54.027 187.23c-.608.564-1.797.302-2.604-.589-.834-.889-.99-2.077-.373-2.65.627-.563 1.78-.3 2.616.59.834.899.996 2.08.36 2.65M58.33 194.39c-.782.543-2.06.034-2.849-1.1-.781-1.133-.781-2.493.017-3.038.792-.545 2.05-.055 2.85 1.07.78 1.153.78 2.513-.019 3.069M65.606 202.683c-.699.77-2.187.564-3.277-.488-1.114-1.028-1.425-2.487-.724-3.258.707-.772 2.204-.555 3.302.488 1.107 1.026 1.445 2.496.7 3.258M75.01 205.483c-.307.998-1.741 1.452-3.185 1.028-1.442-.437-2.386-1.607-2.095-2.616.3-1.005 1.74-1.478 3.195-1.024 1.44.435 2.386 1.596 2.086 2.612M85.714 206.67c.036 1.052-1.189 1.924-2.705 1.943-1.525.033-2.758-.818-2.774-1.852 0-1.062 1.197-1.926 2.721-1.951 1.516-.03 2.758.815 2.758 1.86M96.228 206.267c.182 1.026-.872 2.08-2.377 2.36-1.48.27-2.85-.363-3.039-1.38-.184-1.052.89-2.105 2.367-2.378 1.508-.262 2.857.355 3.049 1.398"
       id="path580" />
  </g>
  <path
     style="fill:#666666;stroke:#666666;stroke-width:2.42715"
     d="m 854.03459,2425.9277 c -15.20434,-3.8426 -74.7391,-26.6339 -108.90086,-41.6897 C 529.912,2289.3847 343.12452,2132.9321 212.4099,1938.0302 99.270133,1769.3332 30.146689,1579.8183 8.3707887,1378.6188 0.54886284,1306.3477 0.01281339,1192.8923 7.1609478,1122.5549 28.826154,909.3699 102.76182,709.12125 223.94545,535.41198 495.5751,146.0476 957.28219,-53.551812 1428.3752,14.728001 c 210.2802,30.477826 415.4956,119.136609 586.1557,253.235609 101.6325,79.85943 192.2985,178.10667 265.6406,287.85276 145.9038,218.32469 218.2109,476.13993 207.4514,739.68223 -1.0976,26.8841 -2.6449,54.9459 -3.4385,62.3595 -7.1257,66.562 -14.9197,114.8704 -27.0416,167.603 -70.9595,308.6922 -258.4938,578.8646 -525.1348,756.5385 -82.6204,55.0533 -198.2665,112.2627 -283.9761,140.481 -28.2679,9.3068 -60.387,3.9923 -76.3142,-12.6267 -15.4401,-16.1108 -14.5699,-3.383 -16.0764,-235.1313 -1.3361,-205.5354 -1.5135,-211.7836 -6.6579,-234.5004 -12.9587,-57.2233 -30.785,-95.178 -61.6018,-131.1588 l -11.7536,-13.7231 12.7808,-1.6017 c 30.3334,-3.8014 89.7012,-14.0098 114.5251,-19.6927 265.6382,-60.8128 403.0163,-216.1023 432.4846,-488.8722 5.0018,-46.2991 5.7337,-142.5617 1.3102,-172.3274 -14.6295,-98.4415 -49.4599,-178.43792 -108.6487,-249.53841 l -14.8501,-17.8387 6.7827,-21.09155 c 10.3432,-32.16345 14.6749,-60.63226 16.1474,-106.12416 1.4371,-44.39766 -0.917,-73.07759 -9.331,-113.68197 -6.4924,-31.33095 -22.9116,-82.56681 -28.1327,-87.78797 -3.5654,-3.56538 -8.2719,-3.9203 -36.9638,-2.7876 -26.1096,1.03076 -38.8744,2.86741 -62.004,8.92139 -63.2509,16.55541 -138.9298,52.34307 -214.7804,101.56721 l -27.8903,18.09969 -30.3612,-7.4851 c -182.8203,-45.07166 -386.7456,-44.66266 -567.22321,1.13763 l -24.73421,6.27686 -34.73086,-21.72603 C 817.16545,568.9649 754.42021,539.67728 690.14364,522.82898 c -33.89298,-8.88408 -90.85896,-12.76091 -98.26185,-6.68722 -4.27178,3.50477 -16.19647,37.20246 -23.82224,67.31868 -11.24237,44.39905 -13.29819,62.74312 -13.35846,119.19824 -0.0631,59.19394 3.67897,87.36448 16.68522,125.60448 l 5.89811,17.34113 -9.13284,10.44338 c -60.11035,68.73594 -98.47342,153.08853 -113.47901,249.51723 -5.18074,33.2924 -5.79789,125.2703 -1.13998,169.9002 21.03248,201.523 95.29855,335.6304 233.47758,421.6064 72.07417,44.8451 178.55492,79.2547 292.34312,94.4717 17.3541,2.3208 31.96831,4.5262 32.47611,4.9009 0.5078,0.3746 -4.4763,7.001 -11.0758,14.7253 -16.14024,18.8911 -20.38683,25.2785 -31.9281,48.0242 -12.27031,24.1825 -21.53019,51.7203 -26.93306,80.0958 l -4.15931,21.8443 -16.81068,6.8971 c -40.74653,16.7173 -103.74023,27.7816 -141.59502,24.8699 -83.89057,-6.4527 -149.80069,-50.1987 -200.25808,-132.9157 -50.00139,-81.9695 -134.84169,-135.3873 -206.42865,-129.9732 -31.33474,2.3699 -47.99052,13.687 -43.93345,29.8516 2.36567,9.4257 28.22013,34.0916 52.35463,49.948 27.11512,17.8146 40.77002,30.1663 62.96729,56.9575 23.69123,28.5945 45.79568,65.9071 64.71824,109.2455 18.96001,43.4241 32.70955,64.7937 57.70762,89.6894 42.56656,42.3923 92.85566,67.2767 162.33001,80.3251 33.7197,6.3332 113.51365,5.7862 157.12314,-1.077 18.02156,-2.8362 36.31617,-5.8993 40.65469,-6.8068 l 7.88823,-1.6501 -0.0534,123.481 c -0.059,136.5563 0.24791,133.6777 -15.98256,149.9295 -13.95551,13.9738 -43.44605,21.313 -64.38065,16.0222 z"
     id="path1052"
     transform="scale(0.1024)" />
  <path
     style="fill:#666666;stroke:#666666;stroke-width:2.42715"
     d="m 898.61348,2033.9546 c -4.35899,-1.8943 -8.6207,-5.256 -9.47046,-7.4704 -2.6093,-6.7997 2.40741,-16.0341 11.29017,-20.7821 10.21277,-5.4589 19.73524,-5.7553 29.11214,-0.9064 14.04011,7.2605 11.42648,20.3588 -5.60543,28.0919 -12.04113,5.4671 -14.92212,5.5885 -25.32642,1.067 z"
     id="path1054"
     transform="scale(0.1024)" />
  <path
     style="fill:#666666;stroke:#666666;stroke-width:2.42715"
     d="m 794.56033,2032.3229 c -7.36921,-3.5682 -11.31154,-13.1264 -7.98092,-19.3497 3.1,-5.7924 16.25969,-11.7953 25.82966,-11.7825 3.71393,0 10.30231,2.1734 14.64083,4.8186 16.82683,10.2595 6.24051,29.3158 -16.10377,28.9881 -6.16089,-0.09 -13.5345,-1.2939 -16.3858,-2.6745 z"
     id="path1056"
     transform="scale(0.1024)" />
  <path
     style="fill:#666666;stroke:#666666;stroke-width:2.42715"
     d="m 702.40496,2015.4877 c -9.78571,-2.7612 -20.37702,-13.4513 -20.37702,-20.5673 0,-12.5874 23.06774,-17.5712 38.31144,-8.2772 8.53244,5.2022 12.64952,12.8354 10.77963,19.9859 -2.05741,7.8675 -16.46893,12.3136 -28.71405,8.8586 z"
     id="path1058"
     transform="scale(0.1024)" />
  <path
     style="fill:#666666;stroke:#666666;stroke-width:2.42715"
     d="m 613.39312,1976.5813 c -11.95315,-8.9159 -17.7397,-26.4016 -10.97556,-33.1657 4.55821,-4.5582 18.68263,-3.4205 26.48191,2.133 7.81236,5.5629 14.29414,16.349 14.29414,23.7862 0,12.2003 -17.46538,16.4474 -29.80049,7.2465 z"
     id="path1060"
     transform="scale(0.1024)" />
  <path
     style="fill:#666666;stroke:#666666;stroke-width:2.42715"
     d="m 548.88317,1893.0942 c -10.25625,-8.63 -14.16253,-21.2687 -9.00598,-29.1386 8.07637,-12.3261 26.43449,-3.8053 33.11986,15.3724 2.24619,6.4434 2.02832,8.9475 -1.20827,13.8872 -5.11361,7.8044 -13.53977,7.7599 -22.90561,-0.121 z"
     id="path1062"
     transform="scale(0.1024)" />
  <path
     style="fill:#666666;stroke:#666666;stroke-width:2.42715"
     d="m 504.3682,1822.2926 c -9.08349,-9.5484 -10.74086,-18.0177 -4.61147,-23.5647 6.16325,-5.5777 14.16386,-3.826 23.03268,5.0428 5.12298,5.123 6.40786,8.4707 5.84122,15.2188 -0.66994,7.9784 -1.3906,8.7072 -9.26589,9.371 -6.73716,0.5679 -9.90224,-0.7128 -14.99654,-6.0679 z"
     id="path1064"
     transform="scale(0.1024)" />
  <path
     style="fill:#666666;stroke:#666666;stroke-width:2.42715"
     d="m 440.85427,1772.8538 c -6.85592,-5.3929 -8.1853,-11.6258 -3.48261,-16.3285 9.73002,-9.73 34.79031,7.3834 26.11651,17.8347 -4.20718,5.0693 -15.20485,4.3375 -22.6339,-1.5062 z"
     id="path1066"
     transform="scale(0.1024)" />
</svg>
