<?xml version="1.0" encoding="utf-8"?>
<svg viewBox="0 0 272.491 272.129" xmlns="http://www.w3.org/2000/svg">
  <g transform="matrix(1, 0, 0, 1, -35.776619, -31.395445)">
    <path d="M 116.147 100.43 L 307.556 100.43 L 290.147 281.997 L 211.642 302.518 L 133.574 281.989 L 116.147 100.43 Z M 271.917 137.589 L 151.785 137.564 L 153.727 159.642 L 246.013 159.658 L 243.689 182.528 L 183.167 182.528 L 185.355 204.194 L 241.702 204.194 L 238.366 233.858 L 211.842 240.628 L 184.899 233.808 L 183.186 216.041 L 159.396 216.041 L 162.039 248.501 L 211.851 262.841 L 260.825 249.958 L 271.917 137.597 L 271.917 137.589 Z" style="fill: rgb(55, 115, 182);"/>
    <g transform="matrix(1, 0, 0, 1, -2.054046, 1.80768)">
      <path d="M 37.23 29.767 L 228.639 29.767 L 211.23 211.334 L 132.725 231.855 L 54.666 211.326 L 37.23 29.767 Z M 101.315 111.865 L 99.201 88.979 L 190.886 89.004 L 192.982 66.926 L 72.887 66.901 L 79.249 134.347 L 162.429 134.347 L 159.458 163.195 L 132.934 169.965 L 106 163.145 L 104.287 145.378 L 80.507 145.378 L 83.514 180.499 L 132.934 192.709 L 181.962 180.558 L 188.744 111.873 L 101.315 111.873 L 101.315 111.865 Z" style="fill: rgb(223, 102, 59);"/>
    </g>
  </g>
</svg>