<?xml version="1.0" encoding="utf-8"?>
<!-- Svg Vector Icons : http://www.onlinewebfonts.com/icon -->
<!DOCTYPE svg PUBLIC "-//W3C//DTD SVG 1.1//EN" "http://www.w3.org/Graphics/SVG/1.1/DTD/svg11.dtd">
<svg version="1.1" xmlns="http://www.w3.org/2000/svg" xmlns:xlink="http://www.w3.org/1999/xlink" x="0px" y="0px" viewBox="0 0 1000 1000" enable-background="new 0 0 1000 1000" xml:space="preserve">
<metadata> Svg Vector Icons : http://www.onlinewebfonts.com/icon </metadata>
<g>
    <g transform="translate(0.000000,511.000000) scale(0.100000,-0.100000)">
        <path d="M399.2,4384c-99.6-30.6-187.7-99.6-241.3-187.7l-51.7-90l-5.7-3137.4c-1.9-2193.1,1.9-3162.3,17.2-3215.9c24.9-95.8,153.2-235.6,241.3-266.2c51.7-15.3,511.4-23,1737.2-24.9l1668.3-1.9l-1.9-204.9c-3.8-180-15.3-243.3-93.8-526.7c-99.6-354.3-168.6-507.6-291.1-635.9l-80.4-84.3l-164.7,9.6c-90,5.7-166.6,3.8-172.4-3.8c-5.7-7.7-3.8-55.5,1.9-103.4l13.4-88.1h2039.9h2039.9l-13.4,70.9c-5.7,40.2-11.5,82.4-11.5,93.8c0,13.4-55.6,26.8-134.1,34.5c-128.3,13.4-136,17.2-197.3,93.8c-120.7,149.4-170.5,262.4-264.3,599.5c-69,252.8-95.8,385-105.4,534.4l-13.4,197.3l55.5,9.6c30.7,5.7,766.2,11.5,1637.6,9.6c1465.3-1.9,1585.9,0,1651.1,32.6c93.9,44.1,199.2,162.8,224.1,254.7c13.4,53.6,17.2,1040.1,15.3,3215.9l-5.8,3141.2l-57.5,93.9c-38.3,59.4-90,111.1-143.7,141.7l-86.2,47.9l-4577.8,3.8C2511.9,4399.3,428,4393.6,399.2,4384z M9558.6,4184.8c34.5-11.5,82.4-46,103.4-74.7l40.2-53.6l3.8-2311.9c1.9-1271.8-1.9-2344.4-5.8-2384.6l-11.5-70.9l-4694.6,3.8l-4696.5,5.7v2378.9v2378.9l40.2,53.6c21.1,28.7,69,63.2,105.3,74.7C533.3,4215.4,9466.7,4215.4,9558.6,4184.8z M9702.2-1546c0-689.6-3.8-710.6-109.2-766.2c-44.1-23-716.3-26.8-4593.1-26.8c-4935.9,0-4618-7.7-4677.4,101.5c-24.9,44-46,1145.4-24.9,1273.7l11.5,61.3l4696.5-3.8l4696.5-5.7V-1546z M6132-2760.4c23-419.5,151.3-869.6,319.9-1118.6l59.4-88.1l-80.4-3.8c-252.8-9.6-2829-5.7-2829,5.7c0,7.7,30.6,63.2,67,124.5c172.4,287.3,295,754.7,296.9,1132v157.1l63.2,5.8c32.6,3.8,519.1,7.7,1076.4,5.7h1015.2L6132-2760.4z" fill="#C6CFDD"/>
        <path d="M4906.1,1775.2c-331.4-994.1-605.3-1817.7-611-1829.2c-5.8-19.2,21.1-24.9,95.8-24.9h105.4l607.2,1815.8c333.3,997.9,605.3,1819.6,605.3,1829.2c0,7.7-46,13.4-101.5,13.4h-99.6L4906.1,1775.2z" fill="#C6CFDD"/>
        <path d="M2745.6,2319.2C2134.6,1984,1740,1756.1,1732.4,1735c-5.7-19.2-5.7-74.7,1.9-124.5l13.4-90l994.1-545.9C3289.6,673.9,3745.4,426.8,3755,423c11.5-3.8,19.2,38.3,19.2,105.3l-1.9,111.1l-907.9,498c-499.9,273.9-909.8,501.8-909.8,507.6s409.9,233.7,909.8,507.6l907.9,498l1.9,111.1c0,59.4-5.7,109.2-13.4,109.2C3751.2,2868.9,3295.3,2621.8,2745.6,2319.2z" fill="#C6CFDD"/>
        <path d="M6225.8,2761.7l1.9-111.1l907.9-498c499.9-273.9,909.8-501.8,909.8-507.6s-409.9-233.7-909.8-507.6l-907.9-498l-1.9-111.1c0-65.1,7.7-109.2,19.2-105.3c9.6,3.8,465.4,250.9,1011.3,551.6l994.1,545.9l13.4,99.6c5.7,53.6,7.7,109.2,1.9,124.5C8256.1,1763.8,6315.9,2844,6245,2867C6233.5,2870.8,6225.8,2828.7,6225.8,2761.7z" fill="#C6CFDD"/>
        <path d="M4846.8-1366c-145.6-99.6-187.7-239.4-116.8-386.9c55.5-113,139.8-164.7,270.1-164.7c130.2,0,214.5,51.7,270.1,164.7c95.8,201.1-46,429.1-270.1,429.1C4938.7-1323.8,4890.8-1337.3,4846.8-1366z M5061.3-1547.9c42.1-36.4,46-126.4,7.7-157.1c-78.5-65.1-206.9,32.6-160.9,120.7C4948.3-1509.6,5003.8-1496.2,5061.3-1547.9z" fill="#C6CFDD"/>
    </g>
</g>
</svg>