<?xml version="1.0" encoding="UTF-8" standalone="no"?>
<svg
   viewBox="2 0 27.9998 28"
   fill="none"
   version="1.1"
   id="svg1098"
   sodipodi:docname="python.svg"
   width="27.9998"
   height="28"
   inkscape:version="1.2.2 (732a01da63, 2022-12-09)"
   xmlns:inkscape="http://www.inkscape.org/namespaces/inkscape"
   xmlns:sodipodi="http://sodipodi.sourceforge.net/DTD/sodipodi-0.dtd"
   xmlns="http://www.w3.org/2000/svg"
   xmlns:svg="http://www.w3.org/2000/svg">
  <sodipodi:namedview
     id="namedview1100"
     pagecolor="#505050"
     bordercolor="#eeeeee"
     borderopacity="1"
     inkscape:showpageshadow="0"
     inkscape:pageopacity="0"
     inkscape:pagecheckerboard="0"
     inkscape:deskcolor="#505050"
     showgrid="false"
     inkscape:zoom="33.4"
     inkscape:cx="15"
     inkscape:cy="12.994012"
     inkscape:window-width="2560"
     inkscape:window-height="1377"
     inkscape:window-x="1912"
     inkscape:window-y="-8"
     inkscape:window-maximized="1"
     inkscape:current-layer="svg1098" />
  <path
     fill-rule="evenodd"
     clip-rule="evenodd"
     d="M 13.0164,0 C 10.8193,0 9.03825,1.72453 9.03825,3.85185 V 6.51852 H 15.9235 V 7.25926 H 5.97814 C 3.78107,7.25926 2,8.9838 2,11.1111 v 5.7778 c 0,2.1273 1.78107,3.8518 3.97814,3.8518 h 2.29508 v -3.2592 c 0,-2.1273 1.78108,-3.8519 3.97818,-3.8519 h 7.3442 c 1.8591,0 3.3661,-1.4592 3.3661,-3.2592 V 3.85185 C 22.9617,1.72453 21.1807,0 18.9836,0 Z m -0.918,4.74074 c 0.7605,0 1.377,-0.59696 1.377,-1.33333 0,-0.73638 -0.6165,-1.33334 -1.377,-1.33334 -0.7606,0 -1.3771,0.59696 -1.3771,1.33334 0,0.73637 0.6165,1.33333 1.3771,1.33333 z"
     fill="url(#paint0_linear_87_8204)"
     id="path1082"
     style="fill:url(#paint0_linear_87_8204)" />
  <path
     fill-rule="evenodd"
     clip-rule="evenodd"
     d="m 18.9834,28 c 2.1971,0 3.9782,-1.7245 3.9782,-3.8518 v -2.6667 h -6.8853 v -0.7407 h 9.9454 c 2.1971,0 3.9781,-1.7246 3.9781,-3.8519 v -5.7778 c 0,-2.1273 -1.781,-3.85182 -3.9781,-3.85182 h -2.2951 v 3.25922 c 0,2.1274 -1.7811,3.8519 -3.9781,3.8519 h -7.3443 c -1.8591,0 -3.36611,1.4592 -3.36611,3.2592 v 6.5186 C 9.03809,26.2755 10.8192,28 13.0162,28 Z m 0.9181,-4.7407 c -0.7606,0 -1.3771,0.5969 -1.3771,1.3333 0,0.7364 0.6165,1.3333 1.3771,1.3333 0.7605,0 1.377,-0.5969 1.377,-1.3333 0,-0.7364 -0.6165,-1.3333 -1.377,-1.3333 z"
     fill="url(#paint1_linear_87_8204)"
     id="path1084"
     style="fill:url(#paint1_linear_87_8204)" />
  <defs
     id="defs1096">
    <linearGradient
       id="paint0_linear_87_8204"
       x1="12.4809"
       y1="2"
       x2="12.4809"
       y2="22.7407"
       gradientUnits="userSpaceOnUse"
       gradientTransform="translate(0,-2)">
      <stop
         stop-color="#327EBD"
         id="stop1086" />
      <stop
         offset="1"
         stop-color="#1565A7"
         id="stop1088" />
    </linearGradient>
    <linearGradient
       id="paint1_linear_87_8204"
       x1="19.518999"
       y1="9.2592802"
       x2="19.518999"
       y2="30"
       gradientUnits="userSpaceOnUse"
       gradientTransform="translate(0,-2)">
      <stop
         stop-color="#FFDA4B"
         id="stop1091" />
      <stop
         offset="1"
         stop-color="#F9C600"
         id="stop1093" />
    </linearGradient>
  </defs>
</svg>
