<?xml version="1.0" encoding="utf-8"?>
<!-- Svg Vector Icons : http://www.onlinewebfonts.com/icon -->
<!DOCTYPE svg PUBLIC "-//W3C//DTD SVG 1.1//EN" "http://www.w3.org/Graphics/SVG/1.1/DTD/svg11.dtd">
<svg version="1.1" xmlns="http://www.w3.org/2000/svg" xmlns:xlink="http://www.w3.org/1999/xlink" x="0px" y="0px" viewBox="0 0 1000 1000" enable-background="new 0 0 1000 1000" xml:space="preserve" fill="#C6CFDD">
<metadata> Svg Vector Icons : http://www.onlinewebfonts.com/icon </metadata>
<g><g transform="translate(0.000000,511.000000) scale(0.100000,-0.100000)"><path d="M6975.9,4236.9c-315.3-83.9-206.4,18.2-3008-2794.8L1359-1178.1l-120.2-297.2C807.8-2543.7,463-3501,463-3625.8v-63.5h4627.8c4158.2,0,4627.8-4.5,4627.8-34c0-20.4-24.9-61.3-56.7-90.7l-54.5-56.7H5000H392.6l-54.4,56.7l-56.7,54.5v2758.5v2756.2h1867h1867l88.5,90.7l88.5,90.7H2236.9H281.5v850.7v853l56.7,54.4l54.4,56.7h2810.7h2808.4l88.5,90.7l88.5,90.7H3296.3H404l-99.8-49.9c-74.9-38.6-115.7-79.4-152-154.3l-52.2-99.8V-59.7v-3688.6l52.2-99.8c36.3-74.9,77.1-115.7,152-152l99.8-52.2h4596h4596l99.8,52.2c74.9,36.3,115.7,77.1,152,152l52.2,99.8V-59.7v3688.6l-49.9,99.8c-38.6,74.9-79.4,115.7-154.3,154.3c-97.5,47.6-118,49.9-857.5,49.9h-760l-86.2,79.4C7744.9,4234.6,7318.4,4329.9,6975.9,4236.9z M7529.4,4064.5c292.7-74.9,569.4-340.3,669.2-644.3c40.8-122.5,49.9-186,40.8-349.4c-11.3-267.7-108.9-467.3-324.4-680.6l-147.5-147.5L7087,2923.4c-374.3,374.3-680.5,691.9-680.5,707.8c0,47.6,304,301.7,442.4,369.8C7064.4,4107.6,7279.9,4128,7529.4,4064.5z M9661.8,3694.7l56.7-54.4v-853v-850.7H8718.1H7715.4l258.6,267.7c274.5,281.3,353.9,406.1,417.4,651.1c63.5,247.3,24.9,569.4-90.7,780.4c-31.8,54.4-56.7,102.1-56.7,106.6c0,4.5,306.3,9.1,680.6,9.1h682.8L9661.8,3694.7z M6969.1,2814.5l685.1-685.1l-328.9-328.9l-328.9-328.9l-691.9,691.9l-691.9,691.9l322.1,322.1c179.2,179.2,328.9,324.4,335.7,324.4S6590.2,3193.3,6969.1,2814.5z M6191,2027.3l680.5-680.6L4943.3-581.5L3015-2509.7l-6.8,226.9l-6.8,226.8H2550h-453.7v453.7v453.7h-242.7h-245L3536.8,779.6c1059.4,1061.7,1937.3,1928.2,1950.9,1928.2C5501.3,2707.9,5816.7,2401.6,6191,2027.3z M9718.5-876.4v-2631.5h-4292H1132.2l419.7,161.1c231.4,86.2,648.8,249.5,930.1,360.7l510.4,204.2L5260.9-513.4l2268.5,2268.5h1093.4h1095.7V-876.4z M1914.8-1783.8v-453.7h453.7h453.7v-213.2V-2664l-521.8-206.4c-285.8-113.4-528.6-206.4-537.6-206.4c-29.5,0-687.4,666.9-687.4,694.2c0,25,324.4,855.2,387.9,991.3c27.2,61.3,29.5,61.3,240.5,61.3h211V-1783.8z M1551.9-3147.2c0-20.4-805.3-315.3-857.5-315.3c-18.2,0,20.4,118,158.8,503.6l138.4,385.6l279-279C1424.8-3006.5,1551.9-3140.3,1551.9-3147.2z"/><path d="M1070.9,3275c-183.7-54.4-304-204.2-326.7-401.5c-11.3-90.7-2.3-129.3,52.2-233.7c52.2-99.8,88.5-133.8,186-186c70.3-36.3,156.5-63.5,206.4-63.5s136.1,27.2,206.4,63.5c97.5,52.2,133.8,86.2,186,186c54.5,104.4,63.5,142.9,52.2,235.9C1601.8,3163.9,1331.8,3354.4,1070.9,3275z M1320.5,3084.5c181.5-99.8,183.8-385.6,4.5-478.7c-249.5-129.3-503.6,124.8-374.3,374.3C1014.2,3100.3,1198,3154.8,1320.5,3084.5z"/><path d="M2071.3,3234.2c-97.5-49.9-133.8-86.2-183.7-183.8c-81.7-154.3-81.7-258.6,0-412.9c52.2-97.5,86.2-133.8,186-186c104.4-54.5,142.9-63.5,233.7-52.2c229.1,25,390.2,186,415.1,412.9c11.3,93,2.3,131.6-52.2,235.9c-52.2,99.8-88.5,133.8-186,186c-70.3,36.3-156.5,63.5-206.4,63.5S2141.7,3270.5,2071.3,3234.2z M2413.9,3082.2c127-65.8,174.7-247.3,99.8-374.3c-142.9-238.2-508.1-140.7-508.1,136.1C2005.6,3052.7,2223.3,3179.7,2413.9,3082.2z"/><path d="M3160.2,3234.2c-97.5-49.9-133.8-86.2-183.8-183.8c-81.7-154.3-81.7-258.6,0-412.9c52.2-97.5,86.2-133.8,186-186c104.4-54.5,142.9-63.5,233.7-52.2c229.1,25,390.2,186,415.1,412.9c11.3,93,2.3,131.6-52.2,235.9c-52.2,99.8-88.5,133.8-186,186c-70.3,36.3-156.5,63.5-206.4,63.5S3230.6,3270.5,3160.2,3234.2z M3502.8,3082.2c36.3-20.4,81.7-65.8,102.1-102.1c97.5-190.6-29.5-408.3-238.2-408.3c-208.7,0-335.7,217.8-238.2,408.3C3194.3,3104.9,3366.7,3152.5,3502.8,3082.2z"/></g></g>
</svg>